<svg width="297" height="298" viewBox="0 0 297 298" fill="none" xmlns="http://www.w3.org/2000/svg">
<path d="M187.443 0.34658C195.04 0.0378155 202.942 0.19128 210.609 0L89.4909 266.675C105.685 266.459 122.464 266.705 138.7 266.73L243.836 267.009C251.881 254.582 260.091 241.6 267.611 228.836C268.632 227.104 269.234 224.441 269.249 222.408C269.289 217.95 267.523 213.664 264.354 210.529C258.329 204.561 249.472 205.859 241.574 205.873L220.178 205.919L143.539 206.079C146.116 199.369 150.122 190.894 153.086 184.147C160.624 167.199 168.067 150.209 175.418 133.178L205.123 133.01C226.057 132.883 237.987 132.363 255.021 147.099C255.189 147.255 255.362 147.413 255.527 147.573C261.861 153.57 269.994 167.078 275.194 174.768C279.941 181.781 289.294 194.887 292.466 202.23C295.15 208.386 296.619 215.003 296.788 221.716C297.269 240.124 289.812 250.239 280.235 264.697C276.42 270.457 273.196 276.001 268.419 281.042C258.634 291.362 244.732 297.427 230.47 297.478C199.3 297.596 168.052 297.236 136.869 297.203L103.179 297.177C95.4764 297.17 84.2005 297.5 76.9232 296.032C67.0396 293.958 57.9381 289.148 50.6593 282.147C45.4221 277.076 41.5869 270.817 37.5607 264.774L25.2926 246.358C20.2757 238.861 7.71862 221.078 4.47892 213.688C1.60935 207.164 0.0884527 200.127 0.00803862 193C-0.0991801 186.915 0.866894 180.858 2.86219 175.108C5.21586 168.189 10.5929 156.952 13.7129 149.937L33.5558 105.325L55.1783 56.5715C58.5396 48.9735 63.3464 37.2111 67.0932 30.1341C69.4968 25.5133 72.5716 21.2739 76.2171 17.5537C82.7335 10.9077 90.8895 6.10039 99.8603 3.61706C110.218 0.756672 127.516 1.35218 138.841 1.1664L187.443 0.34658Z" fill="white"/>
</svg>
